<?xml version="1.0" standalone="no"?>
<!DOCTYPE svg PUBLIC "-//W3C//DTD SVG 20010904//EN"
 "http://www.w3.org/TR/2001/REC-SVG-20010904/DTD/svg10.dtd">
<svg version="1.0" xmlns="http://www.w3.org/2000/svg"
 width="700.000000pt" height="700.000000pt" viewBox="0 0 700.000000 700.000000"
 preserveAspectRatio="xMidYMid meet">
<metadata>
Created by potrace 1.11, written by Peter Selinger 2001-2013
</metadata>
<g transform="translate(0.000000,700.000000) scale(0.100000,-0.100000)"
fill="#000000" stroke="none">
<path d="M3230 6994 c-19 -2 -80 -9 -135 -15 -786 -83 -1566 -471 -2124 -1055
-542 -568 -873 -1285 -956 -2068 -19 -188 -19 -524 0 -712 46 -436 151 -798
350 -1199 176 -358 381 -642 665 -925 521 -519 1175 -856 1890 -974 213 -35
352 -46 580 -46 228 0 367 11 580 46 708 117 1366 454 1880 964 303 300 509
589 695 972 167 347 265 673 322 1078 25 179 25 702 0 879 -114 807 -445 1480
-1002 2036 -561 562 -1246 896 -2060 1006 -79 10 -618 21 -685 13z m-1060
-2499 l0 -84 -119 -3 -118 -3 236 -852 c130 -468 239 -854 242 -857 4 -4 396
1420 466 1692 5 22 5 22 -116 22 l-121 0 0 85 0 85 265 0 265 0 0 -85 0 -84
-72 -3 -73 -3 -280 -992 -280 -993 -60 0 -61 0 -264 933 c-145 512 -272 960
-282 995 l-19 62 -74 0 -75 0 0 85 0 85 270 0 270 0 0 -85z m1690 -677 c349
-1013 352 -1020 360 -1011 4 4 142 405 306 891 l299 882 167 0 168 0 0 -85 0
-85 -105 0 -105 0 0 -910 0 -910 100 0 100 0 0 -85 0 -85 -265 0 -265 0 0 85
0 85 95 0 95 0 -1 763 c0 419 -3 758 -5 752 -3 -5 -127 -365 -277 -800 l-272
-790 -45 0 -44 0 -276 797 c-151 439 -278 798 -283 798 -4 0 -6 -341 -5 -757
l3 -758 98 -3 97 -3 0 -84 0 -85 -265 0 -265 0 0 85 0 85 100 0 100 0 0 910 0
910 -105 0 -105 0 0 85 0 85 168 0 168 0 264 -762z"/>
</g>
</svg>
