<?xml version="1.0" standalone="no"?>
<!DOCTYPE svg PUBLIC "-//W3C//DTD SVG 20010904//EN"
 "http://www.w3.org/TR/2001/REC-SVG-20010904/DTD/svg10.dtd">
<svg version="1.0" xmlns="http://www.w3.org/2000/svg"
 width="700.000000pt" height="700.000000pt" viewBox="0 0 700.000000 700.000000"
 preserveAspectRatio="xMidYMid meet">
<metadata>
Created by potrace 1.14, written by Peter Selinger 2001-2017
</metadata>
<g transform="translate(0.000000,700.000000) scale(0.100000,-0.100000)"
fill="#000000" stroke="none">
<path d="M3295 6990 c-537 -34 -1064 -189 -1512 -445 -902 -515 -1523 -1380
-1717 -2390 -80 -416 -80 -895 0 -1310 134 -697 463 -1315 969 -1820 491 -491
1108 -820 1790 -954 430 -85 904 -87 1330 -5 1393 267 2492 1354 2770 2739 89
446 92 911 9 1350 -233 1228 -1115 2245 -2298 2651 -423 145 -906 211 -1341
184z m-943 -2010 c357 -697 813 -1593 1016 -1997 70 -139 129 -253 132 -253 5
0 514 992 1064 2075 184 363 354 696 378 740 l43 80 328 3 c180 1 327 1 327
-1 0 -2 -376 -729 -835 -1616 -459 -887 -860 -1661 -891 -1722 l-55 -109 -357
0 -357 0 -890 1716 c-490 944 -892 1720 -893 1725 -2 6 134 8 328 7 l331 -3
331 -645z"/>
</g>
</svg>
